<?xml version="1.0" standalone="no"?><!DOCTYPE svg PUBLIC "-//W3C//DTD SVG 1.1//EN" "http://www.w3.org/Graphics/SVG/1.1/DTD/svg11.dtd"><svg t="1620322492965" class="icon" viewBox="0 0 1024 1024" version="1.1" xmlns="http://www.w3.org/2000/svg" p-id="80813" xmlns:xlink="http://www.w3.org/1999/xlink" width="260" height="260"><defs><style type="text/css"></style></defs><path d="M72.382558 444.081045v-7.306488C72.382558 196.319591 267.310603 1.391546 507.765569 1.391546h7.309976c240.454966 0 435.383011 194.928045 435.383011 435.383011v7.309976c0 240.454966-194.928045 435.383011-435.383011 435.383011h-7.309976C267.310603 879.471032 72.382558 684.539499 72.382558 444.084533" fill="#E4EBF7" p-id="80814"></path><path d="M211.03146 456.31549a28.863245 28.863245 0 1 1-57.433533-5.789389 28.863245 28.863245 0 0 1 57.433533 5.789389" fill="#FFFFFF" p-id="80815"></path><path d="M211.44997 555.753485a19.764139 19.764139 0 1 1-39.329485-3.961895 19.764139 19.764139 0 0 1 39.329485 3.961895m61.775575-56.16754a19.907129 19.907129 0 1 1-39.611979-3.993284 19.907129 19.907129 0 0 1 39.611979 3.993284m144.490605-405.857125l103.999755-0.048826a15.997548 15.997548 0 1 0-0.010463-31.998583l-103.999754 0.045338a15.997548 15.997548 0 1 0 0.010462 32.002071m39.779383 63.94834l103.999755-0.045339a16.001035 16.001035 0 0 0-0.01395-31.998583l-103.999755 0.045339a15.997548 15.997548 0 1 0 0.01395 31.998583" fill="#FFFFFF" p-id="80816"></path><path d="M465.775058 93.679994v-0.006975l55.048026-0.020926a16.001035 16.001035 0 1 0 0.010462 31.998583l-55.044538 0.024413v-0.006975a15.99406 15.99406 0 0 0-0.01395-31.98812m250.146962 379.473552c-1.928634 19.129398-18.99687 33.072759-38.122781 31.144125-19.129398-1.928634-33.072759-19.000358-31.144125-38.126269 1.925146-19.129398 18.99687-33.072759 38.126268-31.144125 19.129398 1.928634 33.072759 18.99687 31.144126 38.126269" fill="#FFFFFF" p-id="80817"></path><path d="M716.42772 593.088072a23.837637 23.837637 0 1 1-47.431143-4.784966 23.837637 23.837637 0 0 1 47.431143 4.784966m65.120168-58.354256a24.012016 24.012016 0 1 1-47.779901-4.819841 24.012016 24.012016 0 0 1 47.779901 4.819841" fill="#FFFFFF" p-id="80818"></path><path d="M653.372201 229.957338h-13.779444a16.586949 16.586949 0 0 1-16.541611-16.538123 16.586949 16.586949 0 0 1 16.541611-16.541611h13.779444a16.586949 16.586949 0 0 1 16.541611 16.541611 16.586949 16.586949 0 0 1-16.541611 16.538123" fill="#FFFFFF" p-id="80819"></path><path d="M682.092455 104.732147c0-56.781355 46.029134-102.813976 102.813976-102.813976 56.777867 0 102.813976 46.032621 102.813977 102.813976 0 56.777867-46.036109 102.813976-102.813977 102.813977-56.784843 0-102.813976-46.036109-102.813976-102.813977" fill="#1890FF" p-id="80820"></path><path d="M790.657457 133.877887c1.743792 1.743792 2.737753 3.982821 2.737754 6.724062s-0.997449 5.109311-2.737754 6.849615a10.113994 10.113994 0 0 1-6.975168 2.615688c-2.737753 0-4.983758-0.993961-6.727549-2.737754-1.994898-1.743792-2.859819-3.986309-2.859819-6.727549s0.864921-4.98027 2.859819-6.724062c1.743792-1.743792 3.989796-2.615688 6.731037-2.615688 2.737753 0 5.098848 0.871896 6.97168 2.615688m14.944298-67.878847c4.98027 4.355992 7.473893 10.333711 7.473892 17.933156 0 5.970744-1.489198 10.916138-4.251365 14.822232-0.233668 0.334808-0.477799 0.627765-0.760293 0.92421-1.450835 1.496174-4.917493 4.694288-10.309298 9.412989a17.682051 17.682051 0 0 0-4.98027 6.103272 18.15985 18.15985 0 0 0-1.869345 8.220236v1.743792h-14.323508v-1.743792c0-4.732651 0.749831-8.844513 2.490135-12.206544 1.618239-3.362031 6.476443-8.593407 14.571126-15.819681l1.499661-1.743792c2.242517-2.737753 3.362031-5.730101 3.362031-8.841026 0-4.115349-1.248555-7.351827-3.487584-9.712921-2.364582-2.371557-5.730101-3.491072-9.967515-3.491072-5.356929 0-9.214197 1.618239-11.707819 4.987246-1.290406 1.743792-2.16579 3.958408-2.650564 6.640359a6.97168 6.97168 0 0 1-6.874028 5.684762h-0.01395c-4.453645 0-7.871477-4.125812-6.905417-8.474829 1.175316-5.294153 3.557336-9.695484 7.229762-13.197018 5.356929-5.231376 12.579715-7.847064 21.7974-7.847064 8.091195 0 14.696679 2.116963 19.676949 6.605485" fill="#FFFFFF" p-id="80821"></path><path d="M253.876429 265.513257s76.064207 18.69345 95.235457 55.609527c19.443281 37.456652-22.153134 32.295028-54.859697 17.211227-37.875162-17.465821-86.143325-41.230218-40.37576-72.820754" fill="#FFB594" p-id="80822"></path><path d="M387.949621 235.42587l-1.565925 10.089581c-2.626151 1.708916-16.559049-9.287436-16.559049-9.287437l-5.737076 2.608713-4.694288-19.823427s23.767885-16.004523 31.098787-17.500697c8.551556-1.74728 34.47128 3.278329 37.317148 7.944717 0 0 4.603611 1.694966-7.766849 2.406433-12.373948 0.70798-17.587886 1.55895-23.680695 10.923113-6.092809 9.367651-8.412053 12.639004-8.412053 12.639004" fill="#FFC6A0" p-id="80823"></path><path d="M518.985127 388.401767c-9.161883-26.938099-21.448642-45.966357-31.098787-53.980825-12.206544-10.134919-32.574035-7.759874-39.639879-14.602514-4.429232-4.293216-11.212583-4.174638-11.212583-4.174638s-52.244008-11.01379-58.689063-12.133305c-8.265574-1.429909-7.407628-2.490135-21.113834-4.900056-5.475507-6.650823-10.173283-3.913069-10.173282-3.913069l-24.796723-4.823329c-2.974909-5.133724-8.450416-3.567798-8.450416-3.567798l-8.607357-3.128363c-5.737076 34.792138-26.9939 48.114709-26.9939 48.114709 6.260213 3.913069 54.765531 28.946947 54.765531 28.946947l17.811092 129.424242s-11.582266 19.858303 4.694288 31.768403c0 0 69.343633-13.054027 121.789921-1.147415 0 0 10.626668-8.879389 3.389931-30.711665 1.824006-10.497628 4.861692-28.817907 6.054446-40.532701 1.34272 2.692415 7.041432 6.689186 10.951014 12.126329 0 0 32.807703-25.686056 38.544778-48.868027-2.90167-2.521523-5.573159-5.527821-7.906353-8.555043-1.97746-2.566862-1.248555-7.170473-2.668001-9.475766-2.333194-3.780541-6.291602-4.805891-6.650823-5.866116" fill="#FFFFFF" p-id="80824"></path><path d="M424.942424 1011.392384s14.979173 7.118159 25.647693 3.560823c9.838474-3.278329 15.798756 2.329706 24.692095 4.108374 8.893339 1.778668 23.973652 3.836342 40.755906-4.394356-0.359221-19.216588-24.025966-13.880584-41.711504-23.412151-8.938678-4.812866-13.197018-16.468372-12.548327-30.687252h-32.790265s-4.854717 36.689384-4.045598 50.824562" fill="#CBD1D1" p-id="80825"></path><path d="M424.86221 1010.792519s8.467854 4.432719 23.57258 2.277393c10.665032-1.524074 12.945912 1.677528 25.888336 3.595699 12.945912 1.918171 37.400851-0.240643 41.233706-3.1179 1.440372 3.836342-1.196241 7.194886-1.196242 7.194886s-5.273227 2.103013-16.782254 2.873769c-7.079796 0.474311-20.227987 1.014887-26.530051-1.754255-6.232313-4.795428-18.299353-6.636872-19.976881-0.840508-13.664354 3.313205-25.65118-0.997449-25.651181-0.997449l-0.558013-9.231635z" fill="#2B0849" p-id="80826"></path><path d="M450.230896 962.726637h10.790585s-0.359221 23.373788 15.819681 29.846744c-16.18239 2.155327-29.846744-8.031906-26.610266-29.846744" fill="#A4AABA" p-id="80827"></path><path d="M273.065116 950.021368s-7.348339 25.863923-15.641814 42.918209c-6.270676 12.886623-14.735042 26.128979 19.059647 26.128979 23.185458 0 31.22434-1.67404 25.888336-23.014567-5.336004-21.344014 0.927697-46.032621 0.927697-46.032621h-30.233866z" fill="#CBD1D1" p-id="80828"></path><path d="M251.909432 1010.677429s7.313464 4.076986 23.133145 4.076986c21.214973 0 28.76908-5.754514 28.76908-5.754514s2.099526 3.885169-2.158814 7.55062c-3.463171 2.981884-12.54484 5.548746-25.773246 5.391804-14.456036-0.167404-20.33959-1.973973-23.492366-4.073498-2.877257-1.918171-2.39597-5.510383-0.477799-7.191398" fill="#2B0849" p-id="80829"></path><path d="M276.123728 956.658241s0.11509 5.29764-1.095102 10.218621c-1.217167 4.952369-3.759616 10.825461-3.94097 14.43511-0.20228 4.014209 15.823169 5.510383 17.978496 0.118578 2.162302-5.395292 4.512934-22.414702 6.671748-25.291959 2.158814-2.877257-17.099624-7.39019-19.614172 0.523137" fill="#A4AABA" p-id="80830"></path><path d="M419.955179 971.340969l46.656899 0.320858s4.526884-190.143079 6.462493-224.610872c1.932122-34.464305 13.169117-151.235592 3.494559-220.164203l-43.758716-2.246004-79.687807 2.720316s-1.513611 13.831758-4.167663 34.792138c-0.219718 1.729842-2.378532 2.940033-2.6122 4.760552-0.261569 2.040237 1.475248 4.722189 1.116027 6.85659-8.244649 49.105183-22.240323 115.452981-30.495435 162.789958-0.40456 2.322731-4.303679 3.518972-5.084897 9.385089-0.139503 1.05325 0.73588 5.318566 0.390609 6.260213-23.970165 65.371274-38.185557 166.852994-49.792237 215.829136l50.94314-0.048827s7.662222-29.888595 14.054963-59.1843c9.803599-44.941007 80.601554-296.479516 80.601554-296.479516l10.518554-1.817031 3.63755 161.649518s-0.781219 4.303679 1.175315 7.04492c1.953047 2.737753-1.953047 3.916557-1.367133 7.826139l1.367133 6.256725s-1.565925 25.033878-3.13185 41.467374c-1.562438 16.426521-0.320858 136.591227-0.320858 136.591227" fill="#7BB2F9" p-id="80831"></path><path d="M477.78281 516.9297s-59.452844-10.825461-125.179853 0.697517c0.551038 8.767786-0.010463 14.473474-0.010463 14.473473s51.222146-9.828012 124.402122-1.088126c0.878871-8.21326 0.788194-14.082864 0.788194-14.082864" fill="#192064" p-id="80832"></path><path d="M443.189464 527.200635l0.010463-17.127525a2.824943 2.824943 0 0 0-2.713341-2.842381 384.366632 384.366632 0 0 0-27.328708-0.048826 2.852844 2.852844 0 0 0-2.751704 2.842381l-0.010462 17.110087a2.824943 2.824943 0 0 0 2.898182 2.835406c8.317888-0.209255 17.343755-0.223205 26.959024 0.059288a2.842381 2.842381 0 0 0 2.936546-2.824943" fill="#FFFFFF" p-id="80833"></path><path d="M439.300808 523.950207l0.006975-10.727809a2.239029 2.239029 0 0 0-2.158815-2.252979 328.95241 328.95241 0 0 0-20.458167-0.034876 2.26693 2.26693 0 0 0-2.197178 2.256467v10.713858a2.232054 2.232054 0 0 0 2.28088 2.246004 422.416174 422.416174 0 0 1 20.207061 0.038363c1.262505 0.034876 2.319243-0.976524 2.319244-2.239028" fill="#192064" p-id="80834"></path><path d="M235.866546 290.95867s-1.799593 21.082445 25.190819 19.363066c39.060941-2.48316 32.148549-32.591472 109.998399-75.523631-2.741241-9.444377-8.534118-16.545098-8.534118-16.545098s-38.60058 10.846386-78.763597 28.0611c-23.596993 10.113994-46.716188 22.153134-47.891503 44.644563m200.829036 26.610266l3.281817-18.735301-30.983696-39.863085-17.566961 18.735301-6.068396 27.321733a1.119514 1.119514 0 0 0 0.376659 1.116027c3.365519 2.790067 22.669296 17.483259 50.036368 12.359997a1.157878 1.157878 0 0 0 0.920722-0.934672" fill="#FFC6A0" p-id="80835"></path><path d="M400.013174 276.868831s-15.809218-9.950077-8.481804-23.907389c5.660349-10.776635 15.739467 3.951433 15.739466 3.951433s1.813544-12.701781 10.88475-12.701781c1.813544-3.627087 5.444119-14.515325 5.444119-14.515324s39.915399 9.071206 47.173061 10.884749c0 18.1459-8.035394 67.742832-27.342659 69.266906-31.011597 2.451772-43.416933-32.978594-43.416933-32.978594" fill="#FFC6A0" p-id="80836"></path><path d="M469.527698 256.149094c9.071206-7.257662 12.101916-33.906292 12.101917-33.906291s-8.645721-1.708916-23.157558-7.149548c-16.332356-7.257662-44.6341-16.555561-60.962968 3.403882-33.717962 11.240483-7.149547 69.134378-7.149548 69.134378l9.461816-10.535991s-13.723643-11.463689-7.254175-21.772987c7.568057-12.074016 13.671329 3.742178 13.671329 3.742177s2.221591-8.324863 12.489039-11.655505c1.238092-2.476185 3.613137-9.3258 4.99422-13.427199a3.742178 3.742178 0 0 1 4.404819-2.455259c8.370202 1.946072 30.261766 7.041432 39.605003 9.283949 1.820519 0.435948 3.037686 2.144864 2.859819 4.010721l-1.063713 11.327673z" fill="#520038" p-id="80837"></path><path d="M438.498663 265.279589c-0.359221 2.127426-2.029774 3.620112-3.731714 3.33413-1.705429-0.289469-2.793555-2.246004-2.434334-4.37343 0.359221-2.127426 2.029774-3.620112 3.731715-3.33413 1.701941 0.285982 2.790067 2.246004 2.434333 4.37343m24.953664 5.684762c-0.359221 2.127426-2.029774 3.620112-3.731715 3.33413-1.701941-0.289469-2.790067-2.246004-2.434334-4.37343 0.359221-2.127426 2.029774-3.620112 3.731715-3.33413 1.701941 0.285982 2.790067 2.242517 2.434334 4.37343" fill="#552950" p-id="80838"></path><path d="M595.61781 527.434303h-173.810724a3.52246 3.52246 0 0 1-3.522459-3.52246v-110.514562c0-1.942584 1.576388-3.52246 3.522459-3.522459h173.810724c1.946072 0 3.52246 1.579876 3.52246 3.522459v110.514562a3.52246 3.52246 0 0 1-3.52246 3.52246" fill="#F2D7AD" p-id="80839"></path><path d="M596.531557 527.434303h-69.273881v-117.555994h72.485946v114.343929a3.208577 3.208577 0 0 1-3.208577 3.208577" fill="#F4D19D" p-id="80840"></path><path d="M503.287511 446.048043H396.4384a1.806569 1.806569 0 0 1-1.482223-2.845869l22.250786-31.782353c0.673104-0.966061 1.778668-1.541512 2.964446-1.541512h108.435962l-25.31986 36.169734z" fill="#F2D7AD" p-id="80841"></path><path d="M503.758335 447.969702H418.52527v-1.810056h84.291417l25.051316-35.782612 1.478736 1.0393z" fill="#CC9B6E" p-id="80842"></path><path d="M624.46013 446.048043h-65.109706a7.229762 7.229762 0 0 1-5.785902-2.894695l-24.957151-33.275039h69.629615c1.708916 0 3.313205 0.802144 4.338554 2.169277l23.331937 31.10925a1.810056 1.810056 0 0 1-1.447347 2.894694" fill="#F4D19D" p-id="80843"></path><path d="M622.887229 448.081304h-67.603328l-27.401947-36.532442 1.447347-1.081151 26.854397 35.803537h66.703531z m-95.18663 77.445291l-0.111602-28.517975 1.810056-0.006975 0.111602 28.517974z" fill="#CC9B6E" p-id="80844"></path><path d="M527.550633 487.504954l-0.279007-74.683124 1.810057-0.006975 0.279006 74.683124z m-64.991128 4.007234l-1.736816-0.498725 5.158136-18.020346 1.736817 0.498724z m-11.993801 0.446411l-9.343238-10.236059 9.294412-11.976364 1.429909 1.109052-8.359739 10.773147 8.314401 9.109569z m28.493561 0l-1.335744-1.220655 8.310912-9.109569-8.359739-10.773147 1.42991-1.109052 9.294411 11.976364z" fill="#CC9B6E" p-id="80845"></path><path d="M610.57257 459.984428l-10.860336-6.835664 0.132528 12.25537-3.63755 0.320858c-5.866116 0.401072-12.67388 0.802144-16.70204 0.802144-6.633385 0-9.392064 7.874965 7.777312 9.235122l-9.224659-2.0786s-7.561082 4.593148 1.757742 8.021444c0 0-5.510383 4.24439 1.956535 8.997966-2.036749 12.220494 18.299353 14.152616 24.838573 12.520427 6.542708-1.639164 14.762943-8.227211 15.648789-17.995934 0.976524-10.759197-3.10395-18.944556-11.683406-25.243133" fill="#FFC6A0" p-id="80846"></path><path d="M660.27413 866.029883a23.181971 23.181971 0 0 1-23.181971-23.181971v-231.805758a23.181971 23.181971 0 1 1 46.363942 0v231.805758a23.181971 23.181971 0 0 1-23.181971 23.181971" fill="#5BA02E" p-id="80847"></path><path d="M688.0911 863.71064a23.181971 23.181971 0 0 1-23.178484-23.181971v-115.899392a23.181971 23.181971 0 1 1 46.360455 0v115.899392a23.181971 23.181971 0 0 1-23.181971 23.181971" fill="#92C110" p-id="80848"></path><path d="M722.618181 1024H626.629407a11.11493 11.11493 0 0 1-11.11493-11.11493v-160.8962a11.11493 11.11493 0 0 1 11.11493-11.11493h95.992262a11.11493 11.11493 0 0 1 11.11493 11.11493v160.8962a11.11493 11.11493 0 0 1-11.11493 11.11493" fill="#F2D7AD" p-id="80849"></path></svg>
