<?xml version="1.0" standalone="no"?><!DOCTYPE svg PUBLIC "-//W3C//DTD SVG 1.1//EN" "http://www.w3.org/Graphics/SVG/1.1/DTD/svg11.dtd"><svg t="1620322513826" class="icon" viewBox="0 0 1024 1024" version="1.1" xmlns="http://www.w3.org/2000/svg" p-id="83700" xmlns:xlink="http://www.w3.org/1999/xlink" width="260" height="260"><defs><style type="text/css"></style></defs><path d="M69.545733 447.028018v-7.357424C69.545733 197.621804 265.765791 1.398259 507.818068 1.398259h7.357424c242.04879 0 438.272335 196.223545 438.272334 438.272335v7.357424c0 242.052277-196.223545 438.272335-438.272334 438.272335h-7.357424C265.765791 885.300353 69.545733 689.080295 69.545733 447.028018" fill="#E4EBF7" p-id="83701"></path><path d="M208.984609 460.651457a29.053108 29.053108 0 1 1-57.8168-5.826662 29.053108 29.053108 0 0 1 57.813313 5.826662" fill="#FFFFFF" p-id="83702"></path><path d="M209.406528 560.754267a19.896427 19.896427 0 1 1-39.590612-3.992536 19.896427 19.896427 0 0 1 39.590612 3.992536M271.588965 504.210197a20.039391 20.039391 0 1 1-39.876541-4.016945 20.039391 20.039391 0 0 1 39.876541 4.020431M417.039311 95.66046l104.691611-0.04533a16.106133 16.106133 0 1 0-0.013948-32.212267l-104.691611 0.04533a16.10962 16.10962 0 0 0 0.013948 32.212267m40.043913 64.375717l104.688124-0.04533a16.10962 16.10962 0 1 0-0.013948-32.212267l-104.69161 0.04533a16.106133 16.106133 0 1 0 0.013947 32.212267" fill="#FFFFFF" p-id="83703"></path><path d="M465.416989 95.61513v-0.006974l55.407331-0.024408a16.106133 16.106133 0 1 0 0.017434 32.212267l-55.414304 0.024408v-0.006974a16.102647 16.102647 0 0 0-0.013948-32.198319m127.754171 148.787338h-13.874497a16.698912 16.698912 0 0 1-16.646608-16.650095 16.695425 16.695425 0 0 1 16.646608-16.646607h13.874497a16.698912 16.698912 0 0 1 16.650095 16.646607 16.698912 16.698912 0 0 1-16.650095 16.650095" fill="#FFFFFF" p-id="83704"></path><path d="M668.206425 105.423866c0-57.15777 46.337824-103.492107 103.495593-103.492106 57.15777 0 103.492107 46.334337 103.492107 103.492106 0 57.161257-46.334337 103.495594-103.492107 103.495594s-103.492107-46.334337-103.492107-103.492107" fill="#FF603B" p-id="83705"></path><path d="M779.33491 67.7685l-2.357165 52.426005a5.279213 5.279213 0 0 1-10.551453 0l-2.353678-52.426005a7.636378 7.636378 0 1 1 15.262296 0m-0.92055 67.569746c1.788796 1.663266 2.684937 3.835624 2.684937 6.520561s-0.896141 4.857295-2.684937 6.649577c-1.917812 1.659779-4.219186 2.55592-6.775107 2.55592a8.874239 8.874239 0 0 1-6.52056-2.684937c-1.917812-1.792282-2.810466-3.961153-2.810466-6.52056 0-2.684937 0.892654-4.857295 2.810466-6.520561 1.788796-1.788796 3.96464-2.55592 6.52056-2.55592 2.684937 0 4.986311 0.767125 6.775107 2.55592" fill="#FFFFFF" p-id="83706"></path><path d="M485.53658 464.720705c15.433156-2.085185 12.594794-4.198265 14.22319-16.660555 2.353678-18.062302-10.837381-59.051173-28.809022-87.584729-3.793781-37.379898-43.928354-39.193102-43.928354-39.193102s15.035646 17.068526 14.631161 56.484792c4.874729 18.281978 2.803492 50.38615 2.803493 50.386151s18.323821 39.642916 41.076045 36.567443" fill="#FFB594" p-id="83707"></path><path d="M421.530478 319.437732s5.10138-2.032881 11.196534 2.029394c28.174401 4.874729 36.152499 23.383358 39.402319 39.63943 6.499639 4.470245 6.499639 8.124549 6.499639 12.19031 1.27273 2.709345 5.2827 10.5654 5.2827 10.5654s-25.193075 6.095155-38.19584 23.564679c-4.878216-22.351227-24.185352-87.992699-24.185352-87.9927" fill="#FFFFFF" p-id="83708"></path><path d="M397.345125 315.567239l3.553183-20.276503-32.184372-41.403816-18.247109 19.460561-9.041611 34.391599s29.25535 17.880981 55.919909 7.831646" fill="#FFB594" p-id="83709"></path><path d="M358.720393 272.733781s-15.889944-10.000518-8.525546-24.031927c5.690671-10.833894 15.820205 3.971614 15.820205 3.971614s1.827152-12.769141 10.945476-12.769141c1.823665-3.64733 5.470994-14.589319 5.470994-14.589318s40.124113 9.118324 47.422259 10.941989c-0.003487 18.236648-8.079219 68.096272-27.490962 69.630521-31.173162 2.461773-43.642426-33.153738-43.642426-33.153738" fill="#FFC6A0" p-id="83710"></path><path d="M428.598486 251.906343c9.121811-7.298146 12.165902-34.084749 12.165902-34.084749s-8.689432-1.71557-23.27875-7.190051c-16.41647-7.294659-44.866339-16.636147-61.282809 3.424166-33.26532 15.377365-7.190051 69.494531-7.190052 69.494531l9.515834-10.589808s-13.794298-11.520819-7.294659-21.887465c7.61197-12.134519 13.748968 3.765885 13.748968 3.765885s2.231636-8.368634 12.552951-11.716088c1.241347-2.489669 3.626408-9.379844 5.021181-13.501396a3.765885 3.765885 0 0 1 4.428402-2.46526c8.403503 1.952681 30.416498 7.07847 39.810289 9.331027 1.827152 0.439353 3.054551 2.15841 2.876718 4.030892l-1.073975 11.388316z" fill="#520038" p-id="83711"></path><path d="M422.49287 266.799025c-0.362641 2.137489-2.039855 3.640356-3.751937 3.347453-1.708596-0.285928-2.806979-2.252557-2.447826-4.393532 0.362641-2.137489 2.039855-3.640356 3.751938-3.350941 1.712083 0.289415 2.806979 2.256044 2.447825 4.393533m-24.269038-5.017694c-0.362641 2.137489-2.039855 3.640356-3.751938 3.347454-1.708596-0.285928-2.806979-2.252557-2.447825-4.393533 0.362641-2.137489 2.039855-3.640356 3.751937-3.347453 1.712083 0.285928 2.806979 2.252557 2.447826 4.393532" fill="#552950" p-id="83712"></path><path d="M341.96569 305.029734s22.755711 17.33702 57.429751 8.66851c0 0 33.394336 3.556669 40.225234 18.557446 18.689949 41.041176 1.893403 128.441097 0 139.34473 12.19031 14.139504-1.62491 29.579634-1.62491 29.579634-54.479807-12.371631-124.866993-2.092158-124.866993-2.092159-16.908128-12.364657-4.264516-31.535802-4.264516-31.535802L287.060477 384.678208c-8.665023-53.095496 2.904613-69.051691 12.375118-72.329406 10.5654-3.65779 28.034924-4.470245 28.034924-4.470245 1.729518-0.202242 3.765885-0.265007 4.777095-0.812455 8.229157-4.470245 9.718076-2.032881 9.718076-2.032881" fill="#FFFFFF" p-id="83713"></path><path d="M299.083415 313.161257s-23.972649 1.621423-26.465805 28.439408c-1.62491 30.883746 10.5654 38.19584 10.5654 38.19584s21.183105 77.068145 58.56649 80.049471c29.25535-7.587561 16.590817-23.36941 16.252585-39.82075-0.812455-39.416266-24.785104-58.91867-24.785104-58.91867s-14.686953-47.945299-34.133566-47.945299" fill="#FFC6A0" p-id="83714"></path><path d="M319.614464 433.163981s2.981326 39.276789 34.269556 22.616233c16.615225-8.842857 26.434423-48.217279 34.133565-78.693054 5.076971-20.112617 8.996282-42.530095 8.996282-42.530096l-17.340507-5.959164s-8.396529 19.23391-27.089966 42.802075c-15.115845 19.063051-31.884495 38.739801-32.96893 61.764006" fill="#FFC6A0" p-id="83715"></path><path d="M499.3518 458.62555s-1.488919 9.526295-41.041176 6.90761c-52.956018-3.507852-88.31001-11.332525-88.31001-11.332525l3.253306-20.224199s2.521051 0.74969 33.858099-0.237111c41.449147-1.300625 65.254423-21.16567 87.047741-3.563644 14.083714 11.377855 5.19204 28.453355 5.19204 28.453356" fill="#FFC6A0" p-id="83716"></path><path d="M314.467754 317.220044s-19.502404-16.524565-38.544534 9.344975c-11.569636 25.186101 1.802743 53.294251 9.289184 68.267132-1.080949 13.002765 8.124549 15.032159 8.124549 15.032158s0.376589 3.120803 5.286187 9.344975c14.219704-24.513124 23.432175-31.961208 47.809308-43.747034-1.143713-2.287427-6.544969-11.384829-6.363648-13.135269 0.610213-5.892913-4.470245-9.14622-4.470246-9.146219s-0.997262-0.543961-4.062274-9.547217c-2.747701-8.065271-7.099391-18.051841-17.068526-26.413501" fill="#FFFFFF" p-id="83717"></path><path d="M384.178475 1004.330223s16.929049 8.047836 28.986855 4.027405c11.116335-3.706607 17.853086 2.632633 27.902421 4.641105 10.045848 2.011959 27.089966 4.334255 46.051895-4.965389-0.407971-21.716605-27.149243-15.687702-47.136331-26.458831-10.094665-5.439612-14.910116-18.606263-14.17786-34.67404H388.753328s-5.484942 41.459607-4.574853 57.42975" fill="#CBD1D1" p-id="83718"></path><path d="M384.091301 1003.653759s9.571625 5.01072 26.636665 2.573355c12.050833-1.722544 11.238378 2.301374 25.866053 4.470245 14.627675 2.165384 45.650898-0.676465 49.981666-3.926284 1.62491 4.330768-1.352929 8.124549-1.352929 8.124549s-5.959165 2.378087-18.96193 3.249819c-8.002506 0.536987-28.237166 0.962393-35.357478-2.165384-7.0436-5.41869-17.065039-5.2827-21.130801-0.815942-15.436643 3.748451-25.050111-1.080949-25.050111-1.080948l-0.631135-10.42941z" fill="#2B0849" p-id="83719"></path><path d="M412.760847 949.341324h12.19031s-0.407971 26.410014 17.877494 33.722108c-18.285465 2.440852-33.725595-9.072994-30.067804-33.722108" fill="#A4AABA" p-id="83720"></path><path d="M224.452635 948.605582s-7.699143 27.1074-16.395549 44.97792c-6.569378 13.50837-15.44013 27.386355 19.976626 27.386355 24.303908 0 32.724846-1.753926 27.135296-24.1191-5.593037-22.368661 0.972854-48.245175 0.972854-48.245175h-31.689227z" fill="#CBD1D1" p-id="83721"></path><path d="M202.279241 1012.175818s7.664274 4.27149 24.248117 4.27149c22.232671 0 30.148004-6.03239 30.148004-6.03239s2.196766 4.072735-2.263018 7.915332c-3.626408 3.127777-13.145729 5.816201-27.006279 5.652315-15.157688-0.174347-21.322582-2.06775-24.624706-4.268003-3.012708-2.011959-2.51059-5.777844-0.502118-7.538744" fill="#2B0849" p-id="83722"></path><path d="M227.657124 955.562009s0.122043 5.551194-1.1472 10.704877c-1.27273 5.195527-3.940232 11.34996-4.128526 15.13328-0.212703 4.205239 16.580356 5.777844 18.839887 0.12553 2.266505-5.655802 4.731765-23.491453 6.994783-26.507648 2.259531-3.016195-17.922824-7.74796-20.558944 0.543961" fill="#A4AABA" p-id="83723"></path><path d="M381.542355 967.867388l48.464851 0.331258s4.70387-197.510222 6.712342-233.307054c2.008472-35.800319 13.67923-157.093207 3.633382-228.690358l-45.459117-2.332757-82.769277 2.824414s-1.576093 14.366155-4.334255 36.142038c-0.226651 1.795769-2.468747 3.047578-2.709345 4.940981-0.271981 2.120054 1.530763 4.906112 1.157661 7.127287-8.560415 51.003337-20.213738 114.148167-28.788101 163.317379-0.421919 2.416443-4.470245 3.654303-5.2827 9.749458-0.146451 1.094896 0.767125 5.523298 0.404484 6.503126-24.896686 67.901004-42.54753 183.416048-54.605337 234.286882l52.917662-0.052304s7.957176-35.374913 14.592806-65.801872c10.188812-46.686517 83.728183-307.96573 83.728183-307.96573l10.924554-3.326532-0.550935 169.353257s-0.812455 4.470245 1.220426 7.31558c2.032881 2.841849-2.025907 4.069248-1.422668 8.128036l1.422668 6.499639s-1.62491 26.00553-3.24982 43.07057c-1.628397 17.068526 3.992536 141.883215 3.992536 141.883215" fill="#7BB2F9" p-id="83724"></path><path d="M439.788047 495.552147c-10.558427-1.705109-65.641473-9.568138-126.293147 0.697386a2.179332 2.179332 0 0 0-1.80623 2.245584c0.219677 4.557419 0.153425 8.169879 0.052304 10.443358a2.151436 2.151436 0 0 0 2.496642 2.217688c11.517332-1.862021 59.40684-8.410477 124.357901-0.927524 1.209965 0.139477 2.301374-0.746203 2.412956-1.952681a143.173379 143.173379 0 0 0 0.592778-10.561914 2.147949 2.147949 0 0 0-1.813204-2.161897" fill="#192064" p-id="83725"></path><path d="M405.67889 506.525519l0.010461-17.790321a2.939483 2.939483 0 0 0-2.820927-2.953431 397.872754 397.872754 0 0 0-28.387104-0.048817 2.963891 2.963891 0 0 0-2.859283 2.953431l-0.010461 17.772886c0 1.659779 1.352929 2.9883 3.012708 2.946456 8.640615-0.223164 18.013485-0.233624 28.000055 0.059278a2.956917 2.956917 0 0 0 3.054551-2.939482" fill="#FFFFFF" p-id="83726"></path><path d="M401.637537 503.15017l0.006974-11.140744a2.325783 2.325783 0 0 0-2.242096-2.343218 346.688097 346.688097 0 0 0-21.249357-0.034869 2.353678 2.353678 0 0 0-2.280453 2.343217l-0.006973 11.130283c0 1.311086 1.063514 2.360652 2.371112 2.332757 6.482204-0.146451 13.50837-0.149938 20.991324 0.041843 1.311086 0.034869 2.405982-1.014697 2.409469-2.329269" fill="#192064" p-id="83727"></path><path d="M390.252708 303.202583s19.094433-2.845336 26.410014-15.848101c4.522549-1.202991 2.51059 7.713091-1.150687 12.800523-2.440852 3.38581-3.5218 5.41869-3.5218 5.41869s0.676465 1.080949 0.540474 2.845336c-0.184807 2.430391-0.610213 2.276966-0.948445 3.654304-0.282441 1.168122 0.376589 2.290914 0 3.65779-0.160399 0.592778-0.690412 1.743465-1.332008 3.061525-0.418432 0.868246-0.251059 2.395521-0.697386 3.305611-0.805481 1.635371-5.446586 6.520561-9.142732 9.955187-13.340997 12.392552-17.497419 5.732514-20.925072-1.422668-3.117316-6.503126-2.304861-17.877494-3.047578-23.972649-1.220426-10.160916-9.142733-10.5654-6.705368-15.443617 1.196017-2.388548 10.007491 2.405982 11.377855 6.095155 2.639607 7.113339 10.29342 6.300884 9.142733 5.892914" fill="#FFC6A0" p-id="83728"></path><path d="M375.419304 435.057385s-7.315581-6.77162-17.877494-9.480965c-10.5654-2.709345-12.462291-0.540474-19.23391 0.27198-6.77162 0.812455-13.546726-3.24982-12.734272 2.440852 0.812455 5.683697 17.609001 3.5218 18.152962 7.312094 0.540474 3.790294-22.211749 9.749459-28.986856 7.584074-2.709345 2.709345 1.62491 6.499639 7.0436 7.584075 0.812455 5.41869 7.856055 5.41869 7.856056 5.41869s2.437365 3.5218 9.208984 3.793781c8.66851 4.602749 31.15224-2.440852 38.19584-5.41869 7.0436-2.981326-1.62491-19.505891-1.62491-19.505891" fill="#FFC6A0" p-id="83729"></path><path d="M732.60655 738.458722h-5.593037a14.027923 14.027923 0 0 1-13.98608-13.986079V612.584006a14.027923 14.027923 0 0 1 13.982593-13.982592h5.596524a14.027923 14.027923 0 0 1 13.986079 13.982592v111.888637a14.027923 14.027923 0 0 1-13.982592 13.982592" fill="#A3B4C6" p-id="83730"></path><path d="M898.821568 742.636065a16.782598 16.782598 0 0 1-16.782598 16.782598h-302.093738a16.782598 16.782598 0 0 1 0-33.565196h302.093738a16.782598 16.782598 0 0 1 16.782598 16.782598" fill="#A3B4C6" p-id="83731"></path><path d="M606.874798 662.851601h245.873953v-295.053625h-245.873953z" fill="#A3B4C6" p-id="83732"></path><path d="M853.854108 662.851601H605.765954a11.22443 11.22443 0 0 1-11.186074-11.189561V585.525423a11.22443 11.22443 0 0 1 11.186074-11.193048h248.088154a11.22443 11.22443 0 0 1 11.189561 11.193048v66.136617a11.22443 11.22443 0 0 1-11.193048 11.189561m0.003487-206.649468H605.765954a11.220943 11.220943 0 0 1-11.186074-11.186074v-66.140104a11.22443 11.22443 0 0 1 11.186074-11.189561h248.088154a11.22443 11.22443 0 0 1 11.189561 11.193048v66.136617a11.220943 11.220943 0 0 1-11.193048 11.186074" fill="#BFCDDD" p-id="83733"></path><path d="M625.930875 420.335563a8.393042 8.393042 0 1 1 0-16.782598 8.393042 8.393042 0 0 1 0 16.782598m25.862566 0a8.393042 8.393042 0 1 1 0-16.782598 8.393042 8.393042 0 0 1 0 16.782598m25.862566 0a8.393042 8.393042 0 1 1 0-16.782598 8.393042 8.393042 0 0 1 0 16.782598m167.867824 0h-78.319954a2.796519 2.796519 0 0 1-2.796518-2.796519v-11.186074c0-1.54471 1.251808-2.800005 2.796518-2.800005h78.316467c1.548197 0 2.800005 1.255295 2.800005 2.800005v11.186074c0 1.54471-1.255295 2.796519-2.796518 2.796519" fill="#FFFFFF" p-id="83734"></path><path d="M853.854108 559.526867H605.765954a11.220943 11.220943 0 0 1-11.186074-11.189561v-66.136617a11.22443 11.22443 0 0 1 11.186074-11.189561h248.088154a11.22443 11.22443 0 0 1 11.189561 11.189561v66.136617a11.220943 11.220943 0 0 1-11.193048 11.189561" fill="#BFCDDD" p-id="83735"></path><path d="M625.930875 526.659057a8.393042 8.393042 0 1 1 0-16.786085 8.393042 8.393042 0 0 1 0 16.786085m25.862566 0a8.393042 8.393042 0 1 1 0-16.786085 8.393042 8.393042 0 0 1 0 16.786085m25.862566 0a8.393042 8.393042 0 1 1 0.003487-16.786085 8.393042 8.393042 0 0 1 0 16.786085m167.864337 0h-78.319954a2.796519 2.796519 0 0 1-2.796518-2.796518v-11.189561c0-1.54471 1.251808-2.796519 2.796518-2.796519h78.316467c1.548197 0 2.800005 1.255295 2.800005 2.796519v11.189561c0 1.54471-1.255295 2.796519-2.796518 2.796518m-219.592956 100.94316a8.393042 8.393042 0 1 1 0-16.782598 8.393042 8.393042 0 0 1 0 16.782598m25.862566 0a8.393042 8.393042 0 1 1 0-16.782598 8.393042 8.393042 0 0 1 0 16.782598m25.862566 0a8.393042 8.393042 0 1 1 0-16.782598 8.393042 8.393042 0 0 1 0 16.782598m167.867824 0h-78.319954a2.796519 2.796519 0 0 1-2.796518-2.796518v-11.189561c0-1.54471 1.251808-2.796519 2.796518-2.796519h78.316467c1.548197 0 2.800005 1.255295 2.800005 2.796519v11.189561c0 1.54471-1.255295 2.796519-2.796518 2.796518" fill="#FFFFFF" p-id="83736"></path><path d="M777.532167 770.9883h-95.444271a8.413964 8.413964 0 0 1-8.389555-8.393043v-39.918384a8.417451 8.417451 0 0 1 8.389555-8.393042h95.444271a8.417451 8.417451 0 0 1 8.393042 8.393042V762.59177a8.413964 8.413964 0 0 1-8.393042 8.393043" fill="#BFCDDD" p-id="83737"></path><path d="M637.472616 934.127845a32.853862 32.853862 0 0 1-32.853862-32.853862v-51.676315a32.857349 32.857349 0 0 1 65.711211 0v51.676315a32.857349 32.857349 0 0 1-32.857349 32.853862" fill="#5BA02E" p-id="83738"></path><path d="M666.578028 933.904681a32.853862 32.853862 0 0 1-32.853862-32.857349v-11.988068a32.857349 32.857349 0 0 1 65.711211 0v11.988068a32.857349 32.857349 0 0 1-32.853862 32.857349" fill="#92C110" p-id="83739"></path><path d="M701.76116 1023.993026h-96.629827a11.189561 11.189561 0 0 1-11.189561-11.193048V940.739066a11.189561 11.189561 0 0 1 11.189561-11.193048h96.62634a11.189561 11.189561 0 0 1 11.189561 11.193048v72.067886a11.189561 11.189561 0 0 1-11.189561 11.189561" fill="#F2D7AD" p-id="83740"></path></svg>
